<svg xmlns="http://www.w3.org/2000/svg" viewBox="0 0 170 30"><style type="text/css">  
	.st0{fill:#00AEEF;}
	.st1{fill:none;stroke:#000000;stroke-width:3;stroke-linecap:round;stroke-linejoin:round;stroke-miterlimit:10;}
</style><path d="M56.4 6.6c0 0.3 0 0.6 0 0.8 0 0.2-0.1 0.4-0.1 0.5s-0.1 0.2-0.2 0.3C56 8.3 56 8.3 55.9 8.3S55.5 8.2 55.2 8 54.5 7.6 54 7.4 52.9 7 52.2 6.8s-1.5-0.3-2.4-0.3c-1 0-1.9 0.2-2.7 0.5s-1.5 0.8-2 1.4 -1 1.4-1.3 2.2c-0.3 0.9-0.5 1.8-0.5 2.9 0 1.2 0.2 2.2 0.5 3.1 0.3 0.9 0.7 1.6 1.3 2.2s1.2 1 2 1.3 1.6 0.5 2.6 0.5c0.5 0 0.9-0.1 1.4-0.2 0.4-0.1 0.9-0.3 1.3-0.5v-4.7h-3.8c-0.2 0-0.3-0.1-0.4-0.4 -0.1-0.2-0.2-0.6-0.2-1.2 0-0.3 0-0.5 0-0.7s0.1-0.4 0.1-0.5c0.1-0.1 0.1-0.2 0.2-0.3 0.1-0.1 0.2-0.1 0.3-0.1h6.8c0.2 0 0.3 0 0.4 0.1 0.1 0.1 0.2 0.1 0.3 0.3 0.1 0.1 0.2 0.3 0.2 0.4 0.1 0.2 0.1 0.3 0.1 0.6v8c0 0.3-0.1 0.6-0.2 0.8s-0.3 0.4-0.7 0.6c-0.3 0.1-0.8 0.3-1.3 0.4s-1 0.3-1.6 0.4c-0.5 0.1-1.1 0.2-1.6 0.2C50.5 24 50 24 49.4 24c-1.6 0-3.1-0.2-4.3-0.7 -1.3-0.5-2.4-1.1-3.2-2 -0.9-0.9-1.6-2-2-3.2s-0.7-2.7-0.7-4.3c0-1.7 0.3-3.1 0.8-4.5s1.1-2.4 2-3.3 2-1.6 3.3-2.1 2.7-0.7 4.3-0.7c0.9 0 1.7 0.1 2.4 0.2s1.3 0.3 1.9 0.4c0.5 0.2 1 0.4 1.3 0.6 0.4 0.2 0.6 0.4 0.7 0.5s0.2 0.4 0.3 0.6S56.4 6.1 56.4 6.6z"/><path d="M73.2 15.8c0 0.5-0.1 0.8-0.3 1.1 -0.2 0.2-0.5 0.3-0.9 0.3h-8.5c0 0.6 0.1 1.1 0.2 1.6s0.4 0.9 0.7 1.2c0.3 0.3 0.7 0.6 1.2 0.8 0.5 0.2 1.1 0.3 1.7 0.3 0.7 0 1.3 0 1.8-0.1s1-0.2 1.4-0.3c0.4-0.1 0.7-0.2 0.9-0.3 0.3-0.1 0.5-0.1 0.6-0.1s0.2 0 0.2 0.1c0.1 0 0.1 0.1 0.2 0.2 0 0.1 0.1 0.2 0.1 0.4s0 0.4 0 0.6 0 0.4 0 0.6 0 0.3 0 0.4 -0.1 0.2-0.1 0.3c0 0.1-0.1 0.2-0.2 0.2 -0.1 0.1-0.3 0.2-0.6 0.3 -0.3 0.1-0.7 0.2-1.2 0.4s-1 0.2-1.6 0.3c-0.6 0.1-1.3 0.1-1.9 0.1 -1.2 0-2.3-0.2-3.3-0.5 -0.9-0.3-1.7-0.8-2.3-1.4s-1.1-1.4-1.4-2.4c-0.3-1-0.5-2.1-0.5-3.4 0-1.2 0.2-2.4 0.5-3.4s0.8-1.8 1.4-2.5c0.6-0.7 1.4-1.2 2.2-1.6 0.9-0.4 1.9-0.5 3-0.5 1.2 0 2.2 0.2 3 0.5s1.5 0.8 2 1.4 0.9 1.3 1.2 2.2 0.4 1.7 0.4 2.7L73.2 15.8 73.2 15.8zM69.4 14.7c0-1.1-0.2-2-0.7-2.6 -0.5-0.6-1.2-0.9-2.2-0.9 -0.5 0-0.9 0.1-1.3 0.3s-0.7 0.4-0.9 0.8c-0.2 0.3-0.4 0.7-0.6 1.1 -0.1 0.4-0.2 0.9-0.2 1.4h5.9V14.7z"/><path d="M98.6 23.2c0 0.1 0 0.2-0.1 0.3s-0.2 0.1-0.3 0.2c-0.1 0.1-0.3 0.1-0.6 0.1 -0.3 0-0.6 0-1 0s-0.7 0-1 0 -0.5-0.1-0.6-0.1c-0.2-0.1-0.3-0.1-0.3-0.2 -0.1-0.1-0.1-0.2-0.1-0.3v-8.3c0-0.5 0-0.9-0.1-1.3 -0.1-0.4-0.2-0.7-0.4-1 -0.2-0.3-0.4-0.5-0.7-0.6 -0.3-0.2-0.6-0.2-1-0.2 -0.5 0-0.9 0.2-1.4 0.5 -0.5 0.4-1 0.9-1.6 1.6v9.3c0 0.1 0 0.2-0.1 0.3s-0.2 0.1-0.3 0.2c-0.2 0.1-0.4 0.1-0.6 0.1 -0.3 0-0.6 0-0.9 0 -0.4 0-0.7 0-1 0s-0.5-0.1-0.6-0.1c-0.2-0.1-0.3-0.1-0.3-0.2s-0.1-0.2-0.1-0.3v-8.3c0-0.5 0-0.9-0.1-1.3 -0.1-0.4-0.2-0.7-0.4-1 -0.2-0.3-0.4-0.5-0.7-0.6s-0.6-0.2-1-0.2c-0.5 0-1 0.2-1.4 0.5 -0.5 0.4-1 0.9-1.5 1.6v9.3c0 0.1 0 0.2-0.1 0.3s-0.2 0.1-0.3 0.2c-0.2 0.1-0.4 0.1-0.6 0.1 -0.3 0-0.6 0-1 0s-0.7 0-1 0 -0.5-0.1-0.6-0.1c-0.2-0.1-0.3-0.1-0.3-0.2s-0.1-0.2-0.1-0.3v-14c0-0.1 0-0.2 0.1-0.3s0.1-0.1 0.3-0.2c0.1-0.1 0.3-0.1 0.5-0.1s0.5 0 0.8 0 0.6 0 0.8 0 0.4 0.1 0.5 0.1c0.1 0.1 0.2 0.1 0.3 0.2 0.1 0.1 0.1 0.2 0.1 0.3v1.6c0.8-0.8 1.5-1.5 2.3-1.9s1.6-0.6 2.4-0.6c0.6 0 1.1 0.1 1.5 0.2 0.5 0.1 0.9 0.3 1.2 0.5s0.7 0.5 0.9 0.8c0.3 0.3 0.5 0.7 0.7 1 0.4-0.4 0.8-0.8 1.2-1.2 0.4-0.3 0.8-0.6 1.2-0.8s0.8-0.4 1.2-0.5 0.8-0.1 1.2-0.1c0.9 0 1.7 0.2 2.3 0.5C96.5 9 97 9.4 97.4 10s0.7 1.2 0.8 1.9c0.2 0.7 0.3 1.5 0.3 2.3L98.6 23.2 98.6 23.2z"/><path d="M116.5 16c0 1.2-0.1 2.4-0.4 3.4s-0.7 1.8-1.2 2.5 -1.1 1.2-1.9 1.6 -1.6 0.6-2.6 0.6c-0.4 0-0.8 0-1.1-0.1 -0.3-0.1-0.7-0.2-1-0.4 -0.3-0.2-0.6-0.4-0.9-0.6s-0.6-0.5-1-0.8v6.6c0 0.1 0 0.2-0.1 0.3 -0.1 0.1-0.2 0.2-0.3 0.2 -0.2 0.1-0.4 0.1-0.6 0.1s-0.6 0-1 0 -0.7 0-1 0 -0.5-0.1-0.6-0.1c-0.2-0.1-0.3-0.1-0.3-0.2 -0.1-0.1-0.1-0.2-0.1-0.3V9.2c0-0.1 0-0.2 0.1-0.3s0.1-0.1 0.3-0.2c0.1-0.1 0.3-0.1 0.5-0.1s0.5 0 0.8 0 0.6 0 0.8 0c0.2 0 0.4 0.1 0.5 0.1 0.1 0.1 0.2 0.1 0.3 0.2 0.1 0.1 0.1 0.2 0.1 0.3v1.6c0.4-0.4 0.8-0.8 1.2-1.1s0.8-0.6 1.2-0.8 0.8-0.4 1.3-0.5c0.4-0.1 0.9-0.2 1.4-0.2 1 0 1.9 0.2 2.6 0.6s1.3 1 1.8 1.6 0.8 1.5 1 2.4C116.4 14 116.5 14.9 116.5 16zM112.4 16.3c0-0.6 0-1.2-0.1-1.7s-0.2-1-0.5-1.5c-0.2-0.4-0.5-0.8-0.8-1 -0.3-0.3-0.8-0.4-1.3-0.4 -0.3 0-0.5 0-0.8 0.1s-0.5 0.2-0.8 0.4 -0.5 0.4-0.8 0.7 -0.6 0.6-0.9 1v4.6c0.6 0.7 1.1 1.2 1.6 1.6s1 0.6 1.6 0.6c0.5 0 0.9-0.1 1.3-0.4s0.7-0.6 0.9-1c0.2-0.4 0.4-0.9 0.5-1.4S112.4 16.8 112.4 16.3z"/><path d="M128.6 10.5c0 0.4 0 0.7 0 0.9s-0.1 0.4-0.1 0.6c0 0.1-0.1 0.2-0.2 0.3 -0.1 0.1-0.2 0.1-0.3 0.1 -0.1 0-0.2 0-0.3-0.1 -0.1 0-0.2-0.1-0.4-0.1 -0.1 0-0.3-0.1-0.4-0.1s-0.3-0.1-0.5-0.1 -0.4 0-0.7 0.1 -0.4 0.2-0.7 0.4 -0.5 0.4-0.7 0.8c-0.3 0.3-0.5 0.7-0.8 1.2v8.7c0 0.1 0 0.2-0.1 0.3s-0.2 0.1-0.3 0.2c-0.2 0.1-0.4 0.1-0.6 0.1 -0.3 0-0.6 0-1 0s-0.7 0-1 0 -0.5-0.1-0.6-0.1c-0.2-0.1-0.3-0.1-0.3-0.2s-0.1-0.2-0.1-0.3v-14c0-0.1 0-0.2 0.1-0.3s0.1-0.1 0.3-0.2c0.1-0.1 0.3-0.1 0.5-0.1s0.5 0 0.8 0 0.6 0 0.8 0 0.4 0.1 0.5 0.1c0.1 0.1 0.2 0.1 0.3 0.2C123 9 123 9.1 123 9.2V11c0.4-0.5 0.7-1 1-1.3s0.6-0.6 0.9-0.8 0.6-0.3 0.9-0.4c0.3-0.1 0.6-0.1 0.9-0.1 0.1 0 0.3 0 0.4 0s0.3 0 0.5 0.1c0.2 0 0.3 0.1 0.4 0.1s0.2 0.1 0.3 0.1c0.1 0.1 0.1 0.1 0.1 0.2 0 0.1 0 0.1 0.1 0.3 0 0.1 0 0.3 0 0.5C128.6 9.9 128.6 10.1 128.6 10.5z"/><path class="st0" d="M135.3 4.5c0 0.8-0.2 1.3-0.5 1.6 -0.3 0.3-0.9 0.5-1.8 0.5 -0.9 0-1.5-0.1-1.8-0.4s-0.5-0.8-0.5-1.6 0.2-1.3 0.5-1.6 0.9-0.5 1.8-0.5c0.9 0 1.5 0.1 1.8 0.4S135.3 3.7 135.3 4.5z"/><path d="M135 23.2c0 0.1 0 0.2-0.1 0.3s-0.2 0.1-0.3 0.2c-0.2 0.1-0.4 0.1-0.6 0.1 -0.3 0-0.6 0-1 0s-0.7 0-1 0 -0.5-0.1-0.6-0.1c-0.2-0.1-0.3-0.1-0.3-0.2s-0.1-0.2-0.1-0.3V9.3c0-0.1 0-0.2 0.1-0.3s0.2-0.1 0.3-0.2c0.2-0.1 0.4-0.1 0.6-0.1s0.6 0 1 0 0.7 0 1 0 0.5 0.1 0.6 0.1c0.2 0.1 0.3 0.1 0.3 0.2s0.1 0.2 0.1 0.3V23.2z"/><path d="M152.2 23.2c0 0.1 0 0.2-0.1 0.3s-0.2 0.1-0.3 0.2 -0.3 0.1-0.6 0.1 -0.6 0-0.9 0c-0.4 0-0.7 0-1 0s-0.5-0.1-0.6-0.1c-0.1-0.1-0.3-0.1-0.3-0.2s-0.1-0.2-0.1-0.3v-8c0-0.7 0-1.2-0.1-1.6 -0.1-0.4-0.2-0.7-0.4-1s-0.4-0.5-0.7-0.6 -0.6-0.2-1-0.2c-0.5 0-1 0.2-1.5 0.5 -0.5 0.4-1 0.9-1.6 1.6v9.3c0 0.1 0 0.2-0.1 0.3s-0.2 0.1-0.3 0.2c-0.2 0.1-0.4 0.1-0.6 0.1 -0.3 0-0.6 0-1 0s-0.7 0-1 0 -0.5-0.1-0.6-0.1c-0.2-0.1-0.3-0.1-0.3-0.2s-0.1-0.2-0.1-0.3v-14c0-0.1 0-0.2 0.1-0.3s0.1-0.1 0.3-0.2c0.1-0.1 0.3-0.1 0.5-0.1s0.5 0 0.8 0 0.6 0 0.8 0 0.4 0.1 0.5 0.1c0.1 0.1 0.2 0.1 0.3 0.2 0.1 0.1 0.1 0.2 0.1 0.3v1.6c0.8-0.8 1.6-1.5 2.4-1.9s1.6-0.6 2.5-0.6 1.7 0.2 2.4 0.5 1.2 0.7 1.6 1.3c0.4 0.5 0.7 1.2 0.9 1.9s0.3 1.6 0.3 2.6v8.6H152.2z"/><path d="M164.3 21.8c0 0.5 0 0.8-0.1 1.1 -0.1 0.2-0.1 0.4-0.2 0.5 -0.1 0.1-0.2 0.2-0.4 0.3 -0.2 0.1-0.4 0.1-0.6 0.2 -0.2 0.1-0.5 0.1-0.8 0.1s-0.6 0-0.9 0c-0.8 0-1.5-0.1-2-0.3 -0.6-0.2-1-0.5-1.4-0.9s-0.7-0.9-0.8-1.6c-0.2-0.6-0.3-1.4-0.3-2.2v-7.1h-1.7c-0.2 0-0.3-0.1-0.5-0.4 -0.1-0.2-0.2-0.7-0.2-1.2 0-0.3 0-0.6 0-0.8s0.1-0.4 0.1-0.5c0.1-0.1 0.1-0.2 0.2-0.3s0.2-0.1 0.3-0.1h1.7v-3c0-0.1 0-0.2 0.1-0.3 0.1-0.1 0.2-0.2 0.3-0.2 0.2-0.1 0.4-0.1 0.6-0.1 0.3 0 0.6 0 0.9 0 0.4 0 0.7 0 1 0s0.5 0.1 0.6 0.1c0.1 0.1 0.3 0.1 0.3 0.2s0.1 0.2 0.1 0.3v3.1h3c0.1 0 0.2 0 0.3 0.1s0.1 0.1 0.2 0.3c0.1 0.1 0.1 0.3 0.1 0.5s0 0.5 0 0.8c0 0.6-0.1 1-0.2 1.2 -0.1 0.2-0.3 0.4-0.5 0.4h-3v6.5c0 0.8 0.1 1.3 0.4 1.7 0.2 0.4 0.7 0.6 1.3 0.6 0.2 0 0.4 0 0.6-0.1 0.2 0 0.3-0.1 0.4-0.1 0.1 0 0.2-0.1 0.3-0.1s0.2-0.1 0.2-0.1c0.1 0 0.1 0 0.2 0.1 0.1 0 0.1 0.1 0.1 0.2s0.1 0.3 0.1 0.4C164.3 21.3 164.3 21.5 164.3 21.8z"/><polyline class="st1" points="21.9 18.6 12.9 9.6 12.9 9.6 21.7 9.6 26.4 14.3 26.4 14.3 18.1 22.5 18.1 22.5 17.5 23.1 4 9.7 4 9.5 9.5 4 24.4 4 30.8 10.4 "/></svg>