<?xml version="1.0" standalone="no"?>
<!DOCTYPE svg PUBLIC "-//W3C//DTD SVG 20010904//EN"
 "http://www.w3.org/TR/2001/REC-SVG-20010904/DTD/svg10.dtd">
<svg version="1.0" xmlns="http://www.w3.org/2000/svg"
 width="512.000000pt" height="512.000000pt" viewBox="0 0 512.000000 512.000000"
 preserveAspectRatio="xMidYMid meet">
<metadata>
Created by potrace 1.14, written by Peter Selinger 2001-2017
</metadata>
<g transform="translate(0.000000,512.000000) scale(0.100000,-0.100000)"
fill="#000000" stroke="none">
<path d="M1165 4358 c-34 -9 -108 -79 -532 -501 -271 -270 -500 -506 -508
-523 -19 -41 -19 -144 0 -192 19 -44 2282 -2316 2354 -2363 55 -36 131 -40
189 -10 21 11 380 363 814 798 863 865 813 807 787 917 -11 49 -25 65 -428
470 -278 280 -429 424 -456 437 -38 18 -80 19 -833 19 -672 0 -798 -2 -827
-15 -81 -33 -128 -129 -105 -216 10 -40 79 -112 736 -768 l725 -725 -248 -248
-248 -248 -1022 1022 -1023 1023 382 382 383 383 1190 0 1190 0 525 -526 c299
-299 539 -532 557 -540 142 -62 292 67 253 217 -10 40 -67 100 -578 612 -312
313 -580 576 -597 585 -28 16 -133 17 -1335 19 -863 1 -1319 -2 -1345 -9z
m2363 -1621 l302 -302 -242 -242 -243 -242 -548 545 -549 544 489 0 488 0 303
-303z"/>
</g>
</svg>
